<?xml version="1.0" encoding="utf-8"?>
<!-- Generator: Adobe Illustrator 25.2.1, SVG Export Plug-In . SVG Version: 6.00 Build 0)  -->
<svg version="1.1" id="Layer_1" xmlns="http://www.w3.org/2000/svg" xmlns:xlink="http://www.w3.org/1999/xlink" x="0px" y="0px"
	 viewBox="0 0 400 400" style="enable-background:new 0 0 400 400;" xml:space="preserve">
<style type="text/css">
	.st0{fill:#EEA26B;}
</style>
<g>
	<path class="st0" d="M57.6,6.3c9.5,0,15.7,2.4,21.6,5.9c43.5,25,87.1,49.9,130.7,74.8c48.3,27.6,96.5,55.3,144.8,82.8
		c9.5,5.4,16.1,12.9,18.1,23.8c2.8,15-3.4,28.2-16.9,36c-18,10.4-36,20.7-54.1,31c-74.4,42.5-148.8,85-223,127.7
		c-21.4,12.3-41.5,1.3-48.7-13.2c-4.6-9.2-4.4-18.5-0.9-28.1c15-41.3,29.9-82.7,44.8-124c2.4-6.6,4.9-13,7-19.7c0.6-2,0.7-4.6,0-6.6
		c-17.3-48-34.5-96.1-52.1-144C19.8,27.9,38.9,6.3,57.6,6.3z"/>
</g>
</svg>
