<?xml version="1.0" encoding="utf-8"?>
<!-- Generator: Adobe Illustrator 25.2.1, SVG Export Plug-In . SVG Version: 6.00 Build 0)  -->
<svg version="1.1" id="Layer_1" xmlns="http://www.w3.org/2000/svg" xmlns:xlink="http://www.w3.org/1999/xlink" x="0px" y="0px"
	 viewBox="0 0 804.8 109.8" style="enable-background:new 0 0 804.8 109.8;" xml:space="preserve">
<style type="text/css">
	.st0{fill:#BD0A2E;}
	.st1{fill:#020202;}
	.st2{fill:#030303;}
	.st3{fill:#BE0B2F;}
	.st4{fill:#181818;}
	.st5{fill:#1A1A1A;}
</style>
<path class="st0" d="M2.4,71.1C1.6,66.9,0.6,62.7,0,58.4c-0.3-2.6-0.1-5.4,0.1-8c0.3-2.8,0.8-5.7,1.4-8.5c1.1-5.1,3.1-9.9,5.7-14.5
	c3.4-5.9,7.7-10.9,12.9-15.2c7.6-6.2,16.3-10,26-11.6c6.2-1,12.3-0.9,18.4,0.3c12.9,2.5,23.6,8.7,31.9,18.7
	c9.2,11.1,13.3,23.9,12.6,38.3c-0.2,4.4-1.1,8.6-2.3,13c-0.2,0.1-0.4,0.2-0.6,0.1c-1.3-0.6-2.5-1-3.8-1.6c-0.7-0.3-1.4-0.5-2.1-0.8
	c-0.6-0.1-1.1-0.1-1.7-0.3c-0.3-0.1-0.6-0.2-0.9-0.2c-1.8,0-3.4,0.1-5.1,0.1c-0.2,0-0.2,0.1-0.4,0.1c-0.7,0.1-1.3,0.3-1.9,0.4
	c-0.4,0.1-0.7,0.3-1.2,0.4c-2.2,1.2-4.3,2.4-6.5,3.6c-0.3,0.1-0.4,0.3-0.7,0.4c-1,0.6-2,1.2-3.1,1.7c-0.4,0.2-0.7,0.4-1,0.5
	c-0.4,0.1-0.7,0.2-1.1,0.3c-0.2,0.1-0.3,0.2-0.5,0.2c-0.4,0-0.6,0.1-0.9,0.1c-0.2,0-0.3,0-0.5,0.1c-0.3,0-0.6,0-0.9,0
	c-0.2-0.1-0.5-0.1-0.7-0.1c-0.6-0.2-1.1-0.4-1.6-0.6c-0.2-0.2-0.5-0.3-0.7-0.5c-0.4-0.5-0.7-0.9-1-1.3c-0.1-0.3-0.3-0.5-0.4-0.8
	c-0.4-1.9-0.9-3.7-1.3-5.6c-0.1-0.7-0.2-1.2-0.4-1.9c-0.6-2.6-1.1-5.1-1.7-7.7c-0.1-0.8-0.3-1.5-0.4-2.3c-0.6-2.7-1.1-5.3-1.7-7.9
	C64.1,47.2,64,47,64,46.7c0-0.3-0.1-0.4-0.1-0.7c-0.1-0.3-0.1-0.4-0.2-0.7c-0.6-3-1.1-5.9-1.7-8.9c0-0.3-0.1-0.4-0.1-0.7
	c0-0.2,0-0.3-0.1-0.5c-0.1-0.3-0.1-0.4-0.2-0.7c-0.6-2.3-1.1-4.5-1.7-6.8c-0.1-0.2-0.1-0.3-0.2-0.5c-0.7-1.3-1.3-2.6-2.9-3.1
	c-0.2-0.1-0.4-0.2-0.7-0.3c-0.2,0-0.2,0.1-0.3,0c-1,0-2.1,0.1-3.2,0.2c-2.5,0.7-4.2,4.6-4.4,7.8c-0.2,0.9-0.4,1.7-0.6,2.6
	c-0.6,3-1.1,5.9-1.7,8.8c-0.1,0.2-0.1,0.3-0.2,0.5c-0.7,3.3-1.3,6.5-2,9.8c-0.2,0.7-0.3,1.4-0.4,2.1c-0.1,0.5-0.2,1-0.3,1.4
	c-0.4,1.9-0.7,3.8-1.1,5.8c-0.2,0.9-0.4,1.7-0.6,2.6c-0.5,2.3-1,4.6-1.5,6.9c-0.1,0.3-0.2,0.5-0.3,0.8c-0.7,1.6-1.9,2.5-3.6,2.8
	c-0.2,0-0.3,0.1-0.5,0.1c-0.3,0-0.6,0-0.9,0c-0.3,0-0.6,0-0.9-0.1c-0.8-0.2-1.5-0.4-2.2-0.6c-0.3-0.2-0.5-0.3-0.8-0.4
	c-0.5-0.3-1-0.5-1.5-0.8c-0.2-0.1-0.4-0.2-0.6-0.4c-0.3-0.2-0.5-0.3-0.7-0.5c-0.2-0.1-0.4-0.2-0.7-0.4c-0.9-0.6-1.9-1.1-2.8-1.7
	c-0.4-0.2-0.8-0.4-1.2-0.7c-0.9-0.4-1.7-0.8-2.6-1.2c-0.7-0.3-1.4-0.5-2.1-0.8c-0.7-0.1-1.2-0.2-1.8-0.4c-0.2-0.1-0.4-0.1-0.7-0.1
	c-2.5-0.3-4.8-0.2-7.2,0.7c-0.6,0.2-1.1,0.4-1.7,0.6c-1.2,0.5-2.3,1-3.5,1.4C3,71,2.7,71,2.4,71.1z"/>
<path class="st1" d="M710.8,90.7c-2.4,0-4.7,0-7,0c-0.8,0-1.1-0.2-1.1-1c0-23.9,0-47.7,0-71.6c0-0.9,0.3-1.1,1.1-1.1
	c5.2,0,10.4,0,15.5,0c0.4,0,1,0.3,1.2,0.7c6,9.7,12,19.5,18,29.2c0.2,0.4,0.5,0.7,0.8,1.2c1.1-1.8,2.2-3.5,3.2-5.1
	c4.1-6.6,8.1-13.2,12.2-19.7c1.1-1.8,2.1-3.6,3.3-5.4c0.3-0.4,0.9-0.8,1.3-0.8c5.3-0.1,10.5,0,15.8,0c0.2,0,0.4,0,0.6,0.1
	c0,24.5,0,49,0,73.5c-0.3,0-0.6,0.1-0.9,0.1c-4.5,0-9,0-13.4,0c-1,0-1.2-0.3-1.2-1.3c0-15.2,0-30.4,0-45.6c0-0.2,0-0.4-0.1-0.9
	c-0.3,0.3-0.5,0.5-0.6,0.7c-5.2,8-10.5,15.9-15.7,23.9c-1.1,1.6-2.3,2.8-4.4,2.8c-1.8,0-3.2-0.8-4.2-2.2
	c-4.4-6.7-8.8-13.4-13.2-20.1c-1.1-1.7-2.2-3.4-3.5-5.3c-0.1,0.6-0.1,0.9-0.1,1.1c0,15.3,0,30.6,0,45.8c0,0.8-0.3,1-1,1
	C715.3,90.7,713.1,90.7,710.8,90.7z"/>
<path class="st2" d="M195.9,60.5c3.7,6.5,3.9,13.1,0.8,19.6c-2.8,6-8,9.1-14.4,10.1c-2.1,0.4-4.3,0.4-6.4,0.4c-12.3,0-24.6,0-36.8,0
	c-1.6,0-1.6,0-1.6-1.6c0-23.5,0-47.1,0-70.6c0-0.4,0-0.8,0-1.4c0.5,0,0.9,0,1.4,0c12.3,0,24.6,0,36.9,0c4.8,0,9.5,0.8,13.5,3.6
	c6.3,4.4,8.7,10.6,7.8,18c-0.6,5-2.9,9-7.1,11.8c-1.4,0.9-3,1.5-4.6,2.3C189.9,54,193.4,56.6,195.9,60.5 M164.8,60.1
	c-3.5,0-7.1,0-10.6,0c-0.8,0-1.1,0.2-1.1,1.1c0,5,0,10,0,15c0,0.9,0.2,1.1,1.1,1c1.1-0.1,2.3,0,3.5,0c5.7,0,11.4,0,17.1-0.1
	c4.2-0.1,7-2.7,7.8-6.6c0.7-4-1-7.7-4.7-9.3c-1.5-0.6-3.2-0.8-4.9-0.9C170.4,60,167.7,60.1,164.8,60.1 M163,46.5c3.4,0,6.9,0,10.3,0
	c2.6,0,4.8-0.9,6.4-3c2.1-2.7,2.2-5.7,0.8-8.6c-1.3-2.8-3.8-4.2-6.9-4.3c-6.4-0.1-12.9,0-19.3-0.1c-1,0-1.2,0.3-1.1,1.2
	c0,4.6,0,9.1,0,13.7c0,0.3,0,0.7,0.1,1.1C156.5,46.5,159.6,46.5,163,46.5z"/>
<path class="st2" d="M357.7,41.2c5,15.9,1.8,29.9-10.1,41.2c-10.4,9.9-23.1,12.7-37,9c-9.7-2.6-17.1-8.5-22.4-17
	c-3.3-5.2-5.2-11-5.6-17.1c-0.9-14.8,4.7-26.8,16.9-35.2c11.2-7.7,23.5-9,36.2-3.9C346.3,22.4,353.6,30.3,357.7,41.2 M333.4,34
	c-10.8-6.7-25.9-3.5-32.7,8.6c-6,10.6-3,24.5,8,31.5c11.2,7.1,25.6,3.6,32.6-7.6C348,55.5,344.5,41,333.4,34z"/>
<path class="st2" d="M638,18.3c13.1-5.1,25.5-3.9,36.9,4c10.1,7,15.8,16.9,16.6,29.2c0.8,12.6-3.5,23.2-13,31.7
	c-8.3,7.5-18.2,10.6-29.3,9.6c-8.8-0.8-16.5-4.3-22.9-10.4c-6.5-6.1-10.5-13.7-11.8-22.5c-1.4-9.2,0.4-17.8,5.2-25.8
	c3.1-5.2,7.3-9.5,12.4-12.7C634,20.2,636,19.3,638,18.3 M671.2,39.3c-8.2-10.1-22.9-11.6-33.2-3.4c-9.9,8-11.5,23.1-3.5,32.9
	c8.5,10.5,23,11.6,32.8,4C678.1,64.3,679.3,49.3,671.2,39.3z"/>
<path class="st2" d="M516.9,72.8c-3.1,5.3-7.2,9.5-12.5,12.5c-6.9,4-14.4,5.4-22.3,5.4c-9.1,0-18.2,0-27.2,0c-1.1,0-1.3-0.4-1.3-1.4
	c0-23.7,0-47.3,0-71c0-1.1,0.4-1.3,1.4-1.3c9.2,0,18.4,0,27.6,0c7.1,0,14,1.3,20.4,4.6c7.6,4,13.1,9.9,16.1,18
	c3.4,9,3.4,18.1,0.5,27.2C518.8,68.9,517.8,70.8,516.9,72.8 M469.2,64.9c0,3.6,0,7.2,0,10.9c0,0.9,0.2,1.1,1.1,1.1
	c4.2,0,8.4,0,12.6,0c6.5-0.1,12.3-2.2,16.8-7.1c4-4.4,5.7-9.6,5.8-15.5c0.1-4.7-0.8-9.1-3.2-13.2c-3.9-6.6-10.1-9.6-17.5-10
	c-4.8-0.3-9.6-0.1-14.4-0.1c-1,0-1.2,0.4-1.2,1.3C469.3,43,469.2,53.9,469.2,64.9z"/>
<path class="st2" d="M265.3,90.7c-3.5,0-6.9,0-10.3,0c-0.7,0-1.1-0.2-1.5-0.9c-4.5-8.2-9-16.3-13.5-24.4c-0.2-0.4-0.8-0.8-1.2-0.8
	c-3.5-0.1-7,0-10.7,0c0,8.7,0,17.3,0,26.1c-0.8,0-1.3,0-1.9,0c-4.2,0-8.5,0-12.7,0c-0.9,0-1.1-0.2-1.1-1.1c0-23.8,0-47.6,0-71.4
	c0-0.9,0.2-1.1,1.1-1.1c11.3,0,22.6,0,33.9,0c5.2,0,10.1,1.2,14.5,4.2c4.8,3.3,7.8,7.9,9,13.5c1.2,5.5,0.9,10.9-1.4,16.1
	c-2.6,5.9-7.1,9.7-13.3,11.5c-0.2,0.1-0.4,0.1-0.7,0.2c5.5,9.3,10.9,18.5,16.5,28C269.6,90.7,267.5,90.7,265.3,90.7 M237.8,50.8
	c2.2,0,4.4,0.1,6.7,0c1.3,0,2.7-0.2,3.9-0.5c8.4-2.3,8.7-12,4.6-16.1c-2.3-2.3-5.1-3.2-8.3-3.2c-5.1,0-10.3,0-15.4,0
	c-0.3,0-0.7,0-1,0.1c0,0.2-0.1,0.4-0.1,0.5c0,6.1,0,12.2,0,18.3c0,0.8,0.4,0.9,1,0.9C232,50.8,234.8,50.8,237.8,50.8z"/>
<path class="st2" d="M418.9,35.8c7.1,18.3,14.1,36.5,21.2,54.9c-0.5,0-0.9,0.1-1.2,0.1c-5.1,0-10.3,0-15.4,0c-0.9,0-1.4-0.2-1.7-1.1
	c-1.2-3.4-2.4-6.8-3.6-10.2c-0.3-0.8-0.7-1.2-1.7-1.1c-9.6,0-19.3,0-28.9,0c-1,0-1.5,0.3-1.8,1.3c-1.2,3.5-2.5,6.9-3.8,10.4
	c-0.1,0.4-0.7,0.8-1,0.8c-5.5,0.1-10.9,0-16.4,0c-0.2,0-0.4-0.1-0.7-0.2c0.7-2,1.5-3.9,2.2-5.8c3.6-9.3,7.2-18.7,10.8-28
	c3.9-10,7.8-20.1,11.7-30.1c1.1-2.9,2.2-5.7,3.3-8.6c0.3-0.7,0.6-1,1.3-1c5.9,0,11.8,0,17.7,0c0.7,0,1.1,0.2,1.3,0.9
	C414.3,23.9,416.6,29.8,418.9,35.8 M405.1,41.6c-1-2.8-2-5.6-3.2-8.7c-3.9,10.7-7.6,21.1-11.4,31.5c7.7,0,15.2,0,22.8,0
	C410.6,56.8,407.9,49.3,405.1,41.6z"/>
<path class="st2" d="M597.3,25.3c1.9,2,3.8,4,5.6,6c-3.8,3.8-7.4,7.4-11.1,11c-8.3-14.3-27-14.7-36.9-5.1
	c-9.3,9.1-9.6,24.5-0.1,33.7c5.5,5.4,12.2,7.6,19.9,6.5c7.6-1.1,13.2-5.2,17.2-11.8c0.3,0.3,0.6,0.4,0.8,0.6
	c3.2,3.2,6.3,6.3,9.5,9.5c0.6,0.5,0.7,0.9,0.2,1.6c-7,9.1-16.1,14.4-27.5,15.4c-14.4,1.2-26.2-4.1-34.8-15.7
	c-6.8-9.1-9-19.5-6.7-30.7c2.3-11.2,8.5-19.7,18.3-25.6c9-5.3,18.6-6.6,28.8-4.3C586.9,17.9,592.4,20.9,597.3,25.3z"/>
<path class="st3" d="M103.2,79.5c0,0-0.1,0.1-0.1,0.2c-0.1,0.2-0.2,0.4-0.2,0.5c0,0-0.1,0.1-0.1,0.2c-0.1,0.2-0.1,0.2-0.1,0.3
	c-1.6,2.4-3,4.9-4.8,7.2c-5.7,7.6-13,13.2-21.7,17c-5.2,2.3-10.7,3.6-16.4,4.2c-1.6,0.2-3.1,0.6-4.7,0.7c-1.1,0.1-2.1-0.1-3.2-0.3
	c-7.1-0.9-14.1-2.2-20.5-5.3c-6.1-2.9-11.5-6.8-16.1-11.7c-3.3-3.5-6.1-7.3-8.5-11.5c-0.2-0.8-1.2-1.4-0.4-2.3
	c1.4-0.5,2.8-1,4.2-1.5c0.5-0.1,0.9-0.2,1.4-0.3c1.4,0.1,2.6,0.1,3.9,0.2c0.2,0.1,0.3,0.1,0.5,0.2c0.7,0.3,1.3,0.4,1.9,0.7
	c1.5,0.8,3,1.7,4.5,2.6c0.3,0.2,0.7,0.4,1,0.6c1.1,0.6,2.1,1.1,3.1,1.7c0.2,0.1,0.4,0.2,0.6,0.3c1.3,0.4,2.5,0.8,3.7,1.2
	c0.2,0.1,0.3,0.1,0.5,0.2c0.3,0,0.6,0,0.9,0.1c0.2,0,0.3,0,0.5,0c1,0,1.8,0,2.8,0.1c0.3,0,0.6-0.1,0.9-0.1c0.7-0.1,1.2-0.2,1.9-0.3
	c0.2-0.1,0.4-0.2,0.7-0.3c0.7-0.3,1.4-0.6,2.1-0.9c0.2-0.1,0.4-0.3,0.7-0.4c0.4-0.3,0.6-0.5,1-0.7c0.3-0.1,0.4-0.3,0.7-0.5
	c1.5-1.3,2.7-2.7,3.3-4.6c0.2-0.5,0.4-1,0.6-1.5c0.6-2.2,1.1-4.4,1.6-6.6c0.2-0.7,0.3-1.4,0.4-2.1c0.3-1.3,0.6-2.5,0.8-3.7
	c0.2-1.3,0.4-2.6,0.7-3.9c0.1-0.4,0.2-0.7,0.3-1.1c0.4-1.9,0.9-3.7,1.2-5.5c0.2-1.1,0.3-2.3,0.6-3.4c0.1-0.4,0.2-0.7,0.3-1.1
	c0.2-1,0.3-1.9,0.6-2.8c0.2,0,0.3,0,0.4,0.1c0.3,1.6,0.7,3.1,1,4.7c0.1,0.4,0.2,0.7,0.3,1.1c0.5,2.6,1,5,1.5,7.6
	c0.2,0.8,0.3,1.5,0.4,2.3c0.6,2.7,1.1,5.3,1.7,7.9c0.1,0.3,0.1,0.4,0.2,0.7c0,0.2,0,0.3,0.1,0.5c0.1,0.3,0.1,0.6,0.2,0.9
	c0.2,1.2,0.4,2.3,0.8,3.3c1.6,5,4.6,8.7,10,9.9c0.2,0.1,0.4,0.1,0.7,0.2c0.3,0,0.6,0,0.9,0.1c0.3,0.1,0.6,0.1,1,0.1
	c0.7,0,1.4,0,2.1,0c0.2,0,0.3,0,0.5,0c0.6-0.1,1-0.2,1.6-0.2c0.2-0.1,0.3-0.1,0.5-0.2c2.5-0.6,4.7-1.6,6.8-3
	c0.4-0.2,0.8-0.4,1.2-0.7c0.8-0.5,1.5-1,2.3-1.5c0.4-0.2,0.7-0.4,1.1-0.6c1.1-0.5,2.2-1,3.4-1.5c0.5-0.1,0.9-0.3,1.4-0.4
	c1.4,0.1,2.6,0.1,3.9,0.2c0.2,0.1,0.4,0.1,0.7,0.2c1.4,0.6,2.7,1.2,4.1,1.8C103.2,79.2,103.2,79.4,103.2,79.5z"/>
<path class="st4" d="M799.5,15.6c3.7,1.3,6,5.5,5.2,9.2c-0.9,4.1-4.6,6.9-8.7,6.5c-3.9-0.3-7.2-3.8-7.3-7.8
	C788.5,17.7,793.8,13.8,799.5,15.6 M791.3,26.7c1.8,2.6,4.4,3.5,7.3,2.7c2.6-0.7,4.5-3.2,4.6-5.9c0.1-2.6-1.5-5.2-3.8-6.2
	c-2.7-1.1-5.7-0.5-7.5,1.6C790,21.1,789.8,24.1,791.3,26.7z"/>
<path class="st5" d="M799.9,20.9c0.6,1.6-0.1,2.5-1.3,3.3c0.5,0.9,1,1.8,1.5,2.7c-1.2,0.4-1.9,0.3-2.4-0.8c-0.2-0.5-0.5-1-0.8-1.4
	c-0.2-0.2-0.6-0.3-0.8-0.3c-0.2,0.1-0.4,0.4-0.4,0.7c-0.1,0.4,0,0.8,0,1.2c0,0.6-0.2,0.9-0.9,0.9c-0.7,0-0.9-0.3-0.9-0.9
	c0-2-0.1-4-0.1-6.1c0-0.2,0.4-0.7,0.6-0.7c1-0.1,2-0.1,3-0.1C798.5,19.4,799.4,19.8,799.9,20.9 M795.6,22.7c0.7,0,1.5,0.1,2.2,0
	c0.2,0,0.5-0.6,0.5-0.9c0-0.3-0.4-0.7-0.7-0.8C796.2,20.4,795.5,21,795.6,22.7z"/>
</svg>
