<?xml version="1.0" encoding="utf-8"?>
<!-- Generator: Adobe Illustrator 25.2.1, SVG Export Plug-In . SVG Version: 6.00 Build 0)  -->
<svg version="1.1" id="Layer_1" xmlns="http://www.w3.org/2000/svg" xmlns:xlink="http://www.w3.org/1999/xlink" x="0px" y="0px"
	 viewBox="0 0 400 400" style="enable-background:new 0 0 400 400;" xml:space="preserve">
<style type="text/css">
	.st0{fill:#EEA26B;}
</style>
<g>
	<path class="st0" d="M383.8,157c0,7.9,0,15.8,0,23.7c-0.2,0.3-0.4,0.6-0.5,0.9c-3.9,12.7-11.5,18.4-24.8,18.4c-1.7,0-3.5,0-5.4,0
		c0,2,0,3.4,0,4.8c0,36.1,0,72.2,0,108.2c0,18.9-10.3,32.9-28,38.3c-1.9,0.6-2.4,1.5-2.6,3.4c-0.5,5.2-0.7,10.6-2.4,15.4
		c-2.7,7.5-9.4,11.1-16.7,13.3c-12.7,0-25.4,0-38.1,0c-0.4-0.2-0.8-0.5-1.3-0.6c-11.9-3.5-18-11.5-18.1-23.8c0-2,0-4,0-5.9
		c-30.9,0-61.3,0-91.9,0c0,1.7,0.2,3.1,0,4.5c-0.8,4.4-1,9.1-2.7,13.1c-2.9,7.3-9.5,10.6-16.7,12.7c-12.7,0-25.4,0-38.1,0
		c-7-2.2-13.1-5.6-16.6-12.6c-2.6-5.1-2.5-10.6-2.7-16.1c0-1.1-1-2.8-1.8-3.1c-17.3-4.6-29.2-21.1-28.8-41.2
		c0.7-35.3,0.2-70.7,0.2-106.1c0-1.4,0-2.8,0-4.5c-2,0-3.6,0.2-5.1,0c-4.3-0.7-8.9-1-12.8-2.6c-7.3-3-10.7-9.5-12.8-16.7
		c0-7.9,0-15.8,0-23.7c0.2-0.6,0.5-1.1,0.6-1.7c3.1-15.3,12.2-25.3,26.9-30.1c2.6-0.8,3.2-2,3.2-4.5c-0.1-21.7-0.2-43.5,0-65.2
		c0.2-22.7,16.7-39,39.3-39c75.8,0,151.7,0,227.5,0c3.3,0,6.7,0.3,9.9,1.1c17.8,4.3,29.3,19.2,29.4,38.3c0.1,21.6,0.1,43.2,0,64.8
		c0,2.5,0.5,3.8,3.2,4.5c7.5,2,13.5,6.4,18.6,12.2C379.8,143.1,382.1,149.9,383.8,157z M200,108.3c-32.3,0-64.6,0-96.9,0
		c-16.2,0-25.7,9.4-25.7,25.5c0,23.8,0,47.5,0,71.3c0,2.8,0.2,5.8,1,8.5c2.9,10.9,11.8,17,24.4,17c64.8,0,129.7,0,194.5,0
		c2.7,0,5.5-0.2,8.2-0.9c10.8-2.9,17.1-11.7,17.1-23.9c0.1-24.2,0-48.5,0-72.7c0-2.6-0.3-5.3-1-7.8c-2.9-10.7-11.7-17-23.6-17
		C265.3,108.2,232.6,108.3,200,108.3z M200,47.2c-21.8,0-43.6,0-65.3,0c-6.9,0-13.9-0.2-20.8,0.2c-9,0.6-15.5,5.5-19.1,13.6
		c-3.5,8-2.5,15.9,2.9,23c5.2,6.9,12.5,9.1,20.8,9.1c54.3,0,108.7,0,163,0c0.7,0,1.4,0,2.2,0c17-0.8,27.6-15.6,22-31
		c-3.4-9.3-11.8-14.8-23.1-14.8C255,47.1,227.5,47.2,200,47.2z M115.7,306.9c12.7,0,23.1-10.5,23-23c-0.2-12.5-10.5-22.7-22.9-22.8
		c-12.6,0-23,10.5-22.9,23.1C93,296.8,103.1,306.9,115.7,306.9z M307.1,284.3c0.1-12.6-10.3-23.1-22.9-23.1
		c-12.5,0-22.7,10.2-22.9,22.8c-0.2,12.5,10.3,23,23,23C296.9,306.9,307,296.8,307.1,284.3z"/>
</g>
</svg>
