<?xml version="1.0" encoding="utf-8"?>
<!-- Generator: Adobe Illustrator 25.2.1, SVG Export Plug-In . SVG Version: 6.00 Build 0)  -->
<svg version="1.1" id="Layer_1" xmlns="http://www.w3.org/2000/svg" xmlns:xlink="http://www.w3.org/1999/xlink" x="0px" y="0px"
	 viewBox="0 0 400 400" style="enable-background:new 0 0 400 400;" xml:space="preserve">
<style type="text/css">
	.st0{fill:#EEA26B;}
</style>
<g>
	<path class="st0" d="M254,8c2.2,0.6,4.5,1.2,6.7,1.9c15.9,5.1,27.4,19.6,27.5,36.4c0.3,33.5,0.4,67,0,100.5
		c-0.3,21.7-18.4,38.6-40,38.4c-21.7-0.2-39.2-17.2-39.3-39c-0.3-33-0.2-66,0-99c0.1-19.5,13.7-35,32.8-38.6
		c0.6-0.1,1.1-0.4,1.7-0.7C247,8,250.5,8,254,8z"/>
	<path class="st0" d="M8,146c1.9-5,3.1-10.3,5.8-14.8c7.2-12.3,18.4-19.3,32.6-19.4c33.5-0.4,67-0.4,100.5,0
		c21.6,0.3,38.6,18.4,38.4,40c-0.2,21.5-17,39.1-38.6,39.3c-33.2,0.3-66.5,0.3-99.7,0c-19.2-0.2-34.7-13.8-38.2-32.8
		c-0.1-0.6-0.4-1.1-0.7-1.7C8,153,8,149.5,8,146z"/>
	<path class="st0" d="M392,254c-0.6,2.2-1.2,4.5-2,6.7c-5.1,15.9-19.3,27.3-36,27.5c-33.7,0.4-67.5,0.5-101.2,0
		c-21.5-0.3-38.2-18.6-38-39.9c0.2-21.5,17.1-39.1,38.6-39.3c33.2-0.3,66.5-0.3,99.7,0c19.2,0.2,34.7,13.8,38.2,32.8
		c0.1,0.6,0.4,1.1,0.7,1.7C392,247,392,250.5,392,254z"/>
	<path class="st0" d="M146,392c-6.1-2.6-12.8-4.5-18.2-8.1c-10.3-7-15.9-17.5-16.1-29.9c-0.3-33.7-0.5-67.5,0-101.2
		c0.3-21.4,18.6-38.2,39.9-38c21.5,0.2,39.1,17.1,39.3,38.6c0.3,33.2,0.3,66.5,0,99.7c-0.1,19.2-13.8,34.7-32.8,38.2
		c-0.6,0.1-1.1,0.4-1.7,0.7C153,392,149.5,392,146,392z"/>
	<path class="st0" d="M392,150.5c-1.8,4.9-2.9,10.2-5.4,14.6c-7.1,12.5-18.1,19.4-32.6,20c-10,0.4-20,0.2-30,0.1
		c-7.2-0.1-11.6-4.7-11.6-11.9c0.1-11.5-0.7-23.1,0.8-34.4c2.6-19.4,19.5-33.2,38.8-33.3c18.9-0.1,35.3,13.4,39.1,32.3
		c0.1,0.7,0.5,1.4,0.7,2C392,143.5,392,147,392,150.5z"/>
	<path class="st0" d="M249.5,392c-5.2-2-10.8-3.2-15.5-6c-12-7.1-18.5-18-19-32c-0.4-10.1-0.2-20.2-0.1-30.3c0.1-5.9,4.1-11,9.6-11
		c12.2-0.2,24.6-0.9,36.6,0.6c19.4,2.5,33.2,19.5,33.3,38.8c0.1,18.9-13.5,35.3-32.3,39.2c-0.7,0.1-1.4,0.5-2,0.7
		C256.5,392,253,392,249.5,392z"/>
	<path class="st0" d="M150.5,8c3.8,1.2,7.8,1.9,11.3,3.6c14.4,6.9,22.5,18.3,23.2,34.3c0.5,10.1,0.2,20.2,0.1,30.3
		c-0.1,5.9-4.1,10.9-9.6,11c-12.2,0.2-24.6,0.9-36.6-0.7c-19.2-2.4-32.9-19.1-33.3-38.4c-0.3-19,13.4-35.7,32.3-39.5
		c0.7-0.1,1.4-0.5,2-0.7C143.5,8,147,8,150.5,8z"/>
	<path class="st0" d="M8,249.5c0.4-1.6,0.9-3.1,1.3-4.7c4.4-17.2,19.1-29.3,36.7-29.9c10-0.4,20-0.2,29.9-0.1
		c7.2,0.1,11.6,4.7,11.6,11.9c-0.1,11.5,0.7,23.1-0.8,34.4c-2.6,19.4-19.5,33.2-38.8,33.3C29,294.4,12.5,280.8,8.7,262
		c-0.1-0.7-0.5-1.4-0.7-2C8,256.5,8,253,8,249.5z"/>
</g>
</svg>
