<?xml version="1.0" encoding="utf-8"?>
<!-- Generator: Adobe Illustrator 25.2.1, SVG Export Plug-In . SVG Version: 6.00 Build 0)  -->
<svg version="1.1" id="Layer_1" xmlns="http://www.w3.org/2000/svg" xmlns:xlink="http://www.w3.org/1999/xlink" x="0px" y="0px"
	 viewBox="0 0 400 400" style="enable-background:new 0 0 400 400;" xml:space="preserve">
<style type="text/css">
	.st0{fill:#4F1A3B;}
</style>
<g>
	<path class="st0" d="M11.9,131.7c125.7,0,250.5,0,376.2,0c0,1.7,0,3.3,0,5c0,49.1,0.1,98.2,0,147.4c-0.1,51.9-34.8,93.5-85.8,102.7
		c-5.8,1-11.8,1.3-17.7,1.3c-56.4,0.1-112.9,0.1-169.3,0C64,388,22.1,352.7,13.2,302.2c-1-5.5-1.3-11.2-1.3-16.8
		c-0.1-49.7-0.1-99.5-0.1-149.2C11.9,134.8,11.9,133.5,11.9,131.7z M148.6,234.1c0,15.3-0.1,30.6,0,45.9
		c0.1,14.8,13.4,22.8,26.4,15.7c27.8-15.1,55.4-30.5,83.1-45.6c6.4-3.5,10.3-8.5,10.2-16c-0.1-7.3-3.9-12.2-10.1-15.6
		c-27.6-15.1-55.1-30.4-82.7-45.5c-13.8-7.5-26.9,0.4-26.9,16.2C148.5,204.2,148.6,219.2,148.6,234.1z"/>
	<path class="st0" d="M217,12.8c27.6,0,55.1-1.7,82.3,0.4c42,3.3,79.1,39.2,86.6,80.7c0.2,0.9,0.1,1.8,0.2,3.3c-1.7,0-3.2,0-4.7,0
		c-25.4,0-50.8,0.1-76.2-0.1c-2.1,0-4.7-0.8-6.2-2.2C272,68,245,41,218,14C217.6,13.6,217.3,13.1,217,12.8z"/>
	<path class="st0" d="M105,11.9c21,0,40.8,0,60.5,0.1c1.2,0,2.6,0.9,3.5,1.8c27.3,27.2,54.5,54.4,81.7,81.6c0.3,0.3,0.5,0.7,0.9,1.5
		c-1.5,0.1-2.6,0.3-3.8,0.3c-18.1,0-36.1,0.1-54.2-0.1c-2.1,0-4.7-0.9-6.1-2.3c-26.7-26.4-53.2-53-79.7-79.6
		C107.1,14.4,106.5,13.6,105,11.9z"/>
	<path class="st0" d="M140.5,96.9c-42.3,0-84.2,0-126.2,0c-2.3-22,27.6-62.9,53-73.2C91.6,48,115.8,72.3,140.5,96.9z"/>
</g>
</svg>
